<svg width="61" height="66" viewBox="0 0 61 66" fill="none" xmlns="http://www.w3.org/2000/svg">
    <g clip-path="url(#clip0_43_11977)">
        <path d="M13.8205 22.4818C16.4538 24.0582 19.0065 25.6122 21.5861 27.1125C22.119 27.4215 22.0832 27.8424 22.0921 28.3127C22.1996 34.9632 22.3295 41.6136 22.4056 48.2641C22.4146 49.0657 22.6609 49.4912 23.3595 49.8719C26.4228 51.5602 29.4636 53.2889 32.4866 55.0489C33.0374 55.3714 33.4181 55.3535 33.951 55.031C35.8812 53.8666 37.8517 52.756 39.7954 51.6274C39.8715 51.6677 39.9835 51.6946 39.9835 51.7259C40.1447 54.9011 40.2835 58.0719 40.4537 61.2471C40.4761 61.6949 40.2656 61.9009 39.9253 62.0935C38.0578 63.1594 36.1902 64.2253 34.3407 65.3225C33.9331 65.5643 33.6375 65.524 33.2434 65.3046C26.9915 61.7756 20.7352 58.2645 14.4698 54.7578C14.0757 54.5384 13.8966 54.31 13.8966 53.8353C13.8518 43.4587 13.7846 33.0777 13.7264 22.7012C13.7219 22.6743 13.7443 22.6475 13.8205 22.4818Z" fill="white"/>
        <path d="M47.5341 19.217C44.7082 20.7889 42.0391 22.2623 39.3878 23.7671C38.9176 24.0313 38.6399 23.7402 38.322 23.561C32.4687 20.2963 26.6198 17.0315 20.7799 13.7398C20.153 13.386 19.6782 13.3323 19.0199 13.7354C16.0015 15.576 12.9561 17.3674 9.89734 19.1364C9.39128 19.4319 9.19423 19.732 9.20766 20.3231C9.24797 22.6519 9.22558 24.9807 9.22558 27.4618C7.49242 26.5571 5.85332 25.7152 4.22317 24.8508C2.87068 24.1343 1.02108 23.7088 0.331405 22.5803C-0.353796 21.4562 0.291099 19.5932 0.0716553 18.0974C-0.273184 15.7462 0.667287 14.5056 2.72737 13.3726C8.15075 10.3855 13.4174 7.11175 18.7243 3.9231C19.4095 3.51109 19.9066 3.43495 20.6635 3.86936C29.5398 8.97926 38.4474 14.0354 47.5341 19.217Z" fill="white"/>
        <path d="M32.5627 49.751C32.5627 46.8534 32.5896 44.0051 32.5448 41.1568C32.5314 40.4269 32.7956 40.0686 33.4002 39.7103C39.1415 36.3112 44.8605 32.8717 50.6019 29.4726C51.202 29.1143 51.4483 28.7471 51.4304 28.0216C51.3408 24.515 51.3094 21.0084 51.296 17.5017C51.2915 16.8389 51.099 16.4538 50.5033 16.1224C48.5328 15.0296 46.5981 13.8697 44.659 12.7412C44.7306 12.3291 45.0665 12.2844 45.2949 12.1366C47.6909 10.6005 50.1047 9.09124 52.4828 7.53274C52.9441 7.23269 53.271 7.20582 53.7412 7.48348C55.5281 8.54487 57.324 9.58387 59.1422 10.5915C59.608 10.8513 59.823 11.1155 59.8274 11.6753C59.8767 18.8005 59.9439 25.9257 60.0245 33.0509C60.029 33.5256 59.9394 33.8391 59.4781 34.1078C50.5839 39.2849 41.7032 44.4798 32.818 49.6704C32.7239 49.7241 32.612 49.7375 32.5627 49.751Z" fill="white"/>
        <path d="M47.4983 4.16047C45.2322 5.57118 43.0602 6.90576 40.9105 8.27168C40.5343 8.50904 40.2701 8.45529 39.9253 8.24033C37.798 6.8968 35.6573 5.57566 33.3957 4.16495C35.9215 2.77216 38.3712 1.42863 40.8075 0.0716633C41.0583 -0.0671682 41.224 0.0358358 41.4031 0.152275C43.4095 1.46894 45.4158 2.79007 47.4983 4.16047Z" fill="#369350"/>
        <path d="M52.5365 44.9501C52.5365 47.7446 52.5321 50.2615 52.541 52.7784C52.541 53.1232 52.5321 53.4009 52.1693 53.5935C49.9166 54.7802 47.673 55.9805 45.4293 57.1717C45.4293 54.3458 45.4337 51.5916 45.4248 48.8374C45.4248 48.4522 45.7114 48.3626 45.9667 48.2372C48.0178 47.2072 50.0689 46.1816 52.5365 44.9501Z" fill="#369350"/>
        <path d="M0.694157 28.9755C3.06325 30.2205 5.49952 31.5058 7.94027 32.7777C8.23137 32.9299 8.22241 33.1673 8.22241 33.4226C8.22241 35.7513 8.22241 38.0846 8.22241 40.6104C7.2685 40.176 6.42208 39.7909 5.58013 39.4057C4.22317 38.7832 2.87516 38.1428 1.50475 37.5517C0.94495 37.3098 0.662808 37.0277 0.671765 36.3559C0.721028 33.9197 0.694157 31.4834 0.694157 28.9755Z" fill="#369350"/>
    </g>
    <defs>
        <clipPath id="clip0_43_11977">
            <rect width="60.02" height="65.4882" fill="white"/>
        </clipPath>
    </defs>
</svg>
